<svg width="150" height="50" viewBox="0 0 150 50" fill="none" xmlns="http://www.w3.org/2000/svg">
<path fill-rule="evenodd" clip-rule="evenodd" d="M128.264 30.4691C129.003 31.2214 133.058 34.8275 139.424 30.6424C144.026 27.1931 143.911 19.715 143.469 17.4567C143.315 17.7854 137.969 29.0513 128.264 30.4691ZM143.469 17.4548C143.412 17.4324 137.49 16.6555 131.636 20.2837C128.001 22.5367 127.52 25.8343 127.686 28.0315C136.197 27.1151 143.276 17.7132 143.469 17.4548Z" fill="#BAC7D7"/>
<path fill-rule="evenodd" clip-rule="evenodd" d="M143.469 17.4548C143.412 17.4324 137.49 16.6555 131.636 20.2837C128.001 22.5367 127.52 25.8343 127.686 28.0315C136.196 27.1151 143.276 17.7132 143.469 17.4548Z" fill="#BAC7D7"/>
<path fill-rule="evenodd" clip-rule="evenodd" d="M15.8236 30.0292H9.19436V26.6317H15.8236C17.481 26.6317 18.3276 27.3944 18.3276 28.3824C18.3276 29.3358 17.499 30.0292 15.8236 30.0292ZM15.6075 24.8116H9.19436V21.9514H15.6075C17.3549 21.9514 18.0394 22.5408 18.0394 23.3555C18.0394 24.1009 17.2468 24.8116 15.6075 24.8116ZM17.3008 25.6783C20.093 25.5916 21.1018 24.2569 21.1018 22.8008C21.1018 21.2061 19.7868 19.8887 16.5802 19.8887H6.33008V32.0573H16.8865C19.5166 32.0573 21.4801 30.9999 21.4801 28.7291C21.4801 27.117 20.3813 25.7476 17.3008 25.6783ZM24.8631 19.8887V32.0573H27.7274V19.8887H24.8631ZM39.343 22.1941H45.648V19.8887H30.1737V22.1941H36.4787V32.0573H39.343V22.1941ZM48.0942 19.8887V32.0573H50.9585V27.3077H57.6779V25.3143H50.9585V21.9861H61.8752V19.8887H48.0942ZM64.1954 19.8887V32.0573H67.0597V19.8887H64.1954ZM73.7753 22.8528L83.2689 32.0573H86.5114V19.8887H83.6832V28.6598L74.5679 19.8887H70.929V32.0573H73.7753V22.8528ZM90.3808 19.8887V32.0573H104.396V30.0118H93.2451V26.6663H99.9284V24.7769H93.2451V21.9861H104.396V19.8887H90.3808ZM123.578 19.8887H119.795L114.967 24.1702L110.175 19.8887H106.338L113.075 25.8863L106.086 32.0573H109.869L114.931 27.5677L119.975 32.0573H123.83L116.822 25.869L123.578 19.8887Z" fill="#BAC7D7"/>
</svg>
