<svg width="150" height="50" viewBox="0 0 150 50" fill="none" xmlns="http://www.w3.org/2000/svg">
<path fill-rule="evenodd" clip-rule="evenodd" d="M132.51 31.5925C133.3 32.4307 137.641 36.4479 144.454 31.7856C149.38 27.9431 149.257 19.6122 148.784 17.0965C148.619 17.4626 142.897 30.0131 132.51 31.5925ZM148.783 17.0943C148.723 17.0694 142.385 16.2039 136.119 20.2458C132.228 22.7557 131.713 26.4292 131.891 28.8771C141 27.8562 148.577 17.3821 148.783 17.0943Z" fill="white"/>
<path fill-rule="evenodd" clip-rule="evenodd" d="M148.783 17.0943C148.723 17.0694 142.385 16.2039 136.119 20.2458C132.228 22.7557 131.713 26.4292 131.891 28.8771C141 27.8562 148.577 17.3821 148.783 17.0943Z" fill="white"/>
<path fill-rule="evenodd" clip-rule="evenodd" d="M12.1613 31.1026H5.06574V27.3177H12.1613C13.9352 27.3177 14.8414 28.1673 14.8414 29.2681C14.8414 30.3301 13.9545 31.1026 12.1613 31.1026ZM11.9299 25.2901H5.06574V22.1038H11.9299C13.8002 22.1038 14.5329 22.7604 14.5329 23.668C14.5329 24.4983 13.6845 25.2901 11.9299 25.2901ZM13.7424 26.2556C16.731 26.159 17.8107 24.6721 17.8107 23.05C17.8107 21.2734 16.4032 19.8058 12.9711 19.8058H2V33.3619H13.2989C16.114 33.3619 18.2156 32.184 18.2156 29.6543C18.2156 27.8584 17.0395 26.3328 13.7424 26.2556ZM21.8366 19.8058V33.3619H24.9023V19.8058H21.8366ZM37.3349 22.3741H44.0834V19.8058H27.5206V22.3741H34.2691V33.3619H37.3349V22.3741ZM46.7017 19.8058V33.3619H49.7674V28.0708H56.9594V25.8501H49.7674V22.1424H61.4519V19.8058H46.7017ZM63.9353 19.8058V33.3619H67.001V19.8058H63.9353ZM74.189 23.1079L84.3503 33.3619H87.821V19.8058H84.7938V29.577L75.0374 19.8058H71.1426V33.3619H74.189V23.1079ZM91.9625 19.8058V33.3619H106.963V31.0833H95.0283V27.3563H102.182V25.2514H95.0283V22.1424H106.963V19.8058H91.9625ZM127.494 19.8058H123.445L118.278 24.5756L113.149 19.8058H109.042L116.253 26.4873L108.772 33.3619H112.821L118.239 28.3605L123.638 33.3619H127.764L120.264 26.468L127.494 19.8058Z" fill="white"/>
</svg>
