<svg width="150" height="50" viewBox="0 0 150 50" fill="none" xmlns="http://www.w3.org/2000/svg">
<path d="M124.732 5.78619L129.071 0.600586L128.119 6.19724L124.732 5.78619Z" fill="#BAC7D7"/>
<path d="M116.904 14.84L117.454 6.46477L124.732 5.78619L128.118 6.19801L120.803 10.33L116.904 14.84Z" fill="#BAC7D7"/>
<path d="M116.904 14.84L121.526 22.3301L115.979 20.3529L117.532 22.823H120.918L123.461 32.2705L123.514 32.3555L123.485 32.3608L123.513 32.4644L123.452 32.3669L121.019 32.8111L116.028 38.2432L106.484 28.5215L102.748 43.9769L92.4967 26.2167L81.458 20.1074L81.4642 20.1037L98.6831 9.6531L111.029 11.1951L112.257 9.15746L117.453 6.46419L116.904 14.84Z" fill="#BAC7D7"/>
<path d="M123.033 33.9315L121.021 32.813L116.054 38.2436L123.033 33.9315Z" fill="#BAC7D7"/>
<path d="M40.2669 35.5805L41.7324 36.3211L43.1983 35.5805V43.9765H40.2669V35.5805Z" fill="#BAC7D7"/>
<path d="M40.0412 32.7384C40.0412 31.9341 40.793 31.2764 41.7328 31.2764C42.6726 31.2764 43.424 31.9341 43.424 32.7384C43.424 33.5607 42.6726 34.2002 41.7328 34.2002C40.793 34.2002 40.0412 33.5607 40.0412 32.7384Z" fill="#BAC7D7"/>
<path d="M33.3877 36.0989V31.1835H36.5825V43.9751H33.3877V39.0412H29.31V43.9751H26.1152V31.1835H29.31V36.0989H33.3877Z" fill="#BAC7D7"/>
<path d="M49.9451 43.9771H46.9948V37.5996H45.8485V34.8403H46.9948V31.7703H49.9451V34.8403H51.0917V37.5996H49.9451V43.9771Z" fill="#BAC7D7"/>
<path fill-rule="evenodd" clip-rule="evenodd" d="M63.8338 34.6557C63.8338 33.4864 63.1949 31.1835 59.3048 31.1835H54.0808V43.9751H59.2112C63.0633 43.9751 64.2283 42.2393 64.2283 40.229C64.2283 38.7853 63.4017 37.6341 62.2179 37.3419C63.0448 36.9398 63.8338 36.1175 63.8338 34.6557ZM59.8877 41.0331H57.2755V38.749H59.8877C60.8836 38.749 61.222 39.3703 61.222 39.8818C61.222 40.4117 60.9024 41.0331 59.8877 41.0331ZM59.6621 36.0808H57.2755V34.1074H59.6621C60.6203 34.1074 60.8087 34.747 60.8087 35.0941C60.8087 35.4412 60.6015 36.0808 59.6621 36.0808Z" fill="#BAC7D7"/>
<path d="M72.4406 43.9751H69.2463V34.1074H65.8823V31.1835H75.8046V34.1074H72.4406V43.9751Z" fill="#BAC7D7"/>
<path d="M87.0439 35.0397L89.1116 33.1757C87.8705 31.8784 86.1045 31.0561 84.1501 31.0561C80.448 31.0561 77.4601 33.98 77.4601 37.5797C77.4601 41.1795 80.448 44.1032 84.1501 44.1032C86.1045 44.1032 87.8705 43.2811 89.1116 41.9836L87.0439 40.1197C86.2549 40.8142 85.2591 41.1613 84.1501 41.1613C82.196 41.1613 80.6545 39.7724 80.6545 37.5797C80.6545 35.3869 82.196 33.98 84.1501 33.98C85.2591 33.98 86.2549 34.3451 87.0439 35.0397Z" fill="#BAC7D7"/>
</svg>
