<svg width="150" height="50" viewBox="0 0 150 50" fill="none" xmlns="http://www.w3.org/2000/svg">
<path d="M129.903 2.31836C129.933 2.23153 129.963 2.1447 129.903 2C129.843 2.08683 129.784 2.1447 129.724 2.20258L129.298 2.70901L129.297 2.71004C128.389 3.79169 127.466 4.88911 126.589 5.9649C126.458 6.13055 126.317 6.28963 126.175 6.44988C125.896 6.76561 125.612 7.08589 125.395 7.46984C125.366 7.47911 125.337 7.48243 125.31 7.48553C125.254 7.49212 125.206 7.49766 125.186 7.55665C124.85 7.53751 124.527 7.56898 124.201 7.60088C124.033 7.61723 123.865 7.63367 123.693 7.64347C122.325 7.74958 120.981 7.87999 119.617 8.01243L119.244 8.04865C119.075 8.06502 118.906 8.07675 118.738 8.08844C118.312 8.1181 117.889 8.14746 117.483 8.25123C117.479 8.25316 117.474 8.25497 117.47 8.25666C117.464 8.25904 117.458 8.26121 117.452 8.26325C117.438 8.26761 117.424 8.27138 117.409 8.27523C117.362 8.28765 117.312 8.30096 117.274 8.33806C116.258 8.859 115.243 9.37993 114.228 9.9298C114.016 10.0406 113.801 10.1493 113.586 10.2582C113.015 10.5473 112.442 10.8379 111.899 11.1743C111.855 11.2466 111.802 11.3189 111.75 11.3912C111.698 11.4636 111.646 11.536 111.601 11.6084C111.451 11.8688 111.295 12.1221 111.138 12.3753C110.981 12.6285 110.824 12.8818 110.675 13.1422C110.615 13.258 110.526 13.3448 110.347 13.3159C110.168 13.2869 109.981 13.2652 109.794 13.2435C109.608 13.2218 109.421 13.2001 109.242 13.1712C108.242 13.041 107.234 12.9108 106.227 12.7805L106.22 12.7797C105.215 12.6497 104.209 12.5197 103.211 12.3898C101.509 12.1583 99.8073 11.9557 98.0756 11.7531C97.9883 11.7446 97.9036 11.7263 97.8199 11.7081C97.6174 11.6643 97.421 11.6218 97.2098 11.7241C97.1799 11.7386 97.1426 11.7531 97.1053 11.7675C97.0842 11.7757 97.0631 11.7839 97.0433 11.7921C97.0281 11.7984 97.0137 11.8047 97.0008 11.811C94.5369 13.3163 92.0731 14.8144 89.6093 16.3124C87.1467 17.8097 84.6842 19.307 82.2216 20.8116L78.9971 22.8085C78.9672 22.823 78.9448 22.8375 78.9224 22.8519C78.9001 22.8663 78.8776 22.8809 78.8478 22.8953C78.818 22.8953 78.7881 22.8953 78.7881 22.9532C78.7835 22.9845 78.7775 23.0151 78.7715 23.0451C78.7391 23.2094 78.7102 23.3563 78.9374 23.5031L78.9392 23.5041C80.4911 24.343 82.0431 25.182 83.5652 26.0499C84.6245 26.6428 85.6914 27.2358 86.7582 27.8288L86.76 27.8298C87.8273 28.4231 88.8947 29.0163 89.9545 29.6096C90.0121 29.6445 90.0731 29.6759 90.1346 29.7077C90.3285 29.8079 90.5279 29.9108 90.6413 30.1305C91.454 31.5784 92.2829 33.0106 93.116 34.4501C93.4153 34.9673 93.7152 35.4854 94.0151 36.0055C94.244 36.4034 94.4729 36.7992 94.7012 37.1941L94.7019 37.1952C95.3371 38.2936 95.968 39.3847 96.5828 40.4914C97.1501 41.461 97.7099 42.4306 98.2698 43.4001C98.8296 44.3696 99.3893 45.339 99.9566 46.3085C100.434 47.1189 100.912 47.9581 101.36 48.7685C101.42 48.8842 101.479 49 101.629 49C101.768 48.9775 101.781 48.8846 101.794 48.7899C101.797 48.7631 101.801 48.7361 101.808 48.7106C101.957 48.1897 102.106 47.6687 102.226 47.1478L104.017 39.5942L104.017 39.5935C104.405 38.002 104.793 36.4105 105.152 34.819C105.226 34.5151 105.301 34.204 105.376 33.8929C105.45 33.5817 105.525 33.2706 105.6 32.9667C105.606 32.9469 105.612 32.9241 105.617 32.9003C105.636 32.8199 105.657 32.7286 105.749 32.7063C105.841 32.6839 105.898 32.7478 105.96 32.8181L105.972 32.8323L105.981 32.8419C105.993 32.8548 106.005 32.8677 106.018 32.8799C106.167 33.0246 106.316 33.1983 106.465 33.3719C106.695 33.6024 106.924 33.8282 107.152 34.0526C107.725 34.6173 108.29 35.1734 108.824 35.774C109.202 36.1985 109.607 36.5973 110.012 36.996C110.214 37.1953 110.416 37.3948 110.615 37.5973C112.257 39.3039 113.928 40.9815 115.599 42.6592L115.6 42.6602L115.602 42.662C115.811 42.8935 116.02 42.9224 116.288 42.7488C116.497 42.6185 116.699 42.4955 116.9 42.3725C117.102 42.2495 117.303 42.1265 117.512 41.9963C118.214 41.5623 118.923 41.1282 119.632 40.6941L119.633 40.6934L119.641 40.6888C120.347 40.2564 121.053 39.824 121.752 39.3916C121.855 39.3291 121.96 39.2666 122.065 39.2039L122.065 39.2035C122.447 38.9756 122.834 38.7439 123.185 38.4945L123.197 38.4869C123.374 38.3724 123.599 38.2278 123.394 37.9446C123.444 37.8486 123.35 37.8123 123.282 37.7862C123.268 37.7808 123.255 37.7759 123.245 37.7709C123.021 37.6408 122.805 37.5179 122.588 37.3949C122.372 37.2719 122.155 37.1488 121.931 37.0185C121.978 36.8837 122.078 36.871 122.176 36.8585C122.205 36.8549 122.233 36.8513 122.26 36.8448C122.618 36.758 122.946 36.7001 123.305 36.6422L123.352 36.6366L123.383 36.633L123.462 36.624C124.041 36.559 124.142 36.5477 123.812 35.774C123.83 35.7055 123.816 35.6472 123.802 35.5869C123.792 35.5454 123.782 35.5029 123.782 35.4557C123.558 34.6309 123.342 33.8134 123.126 32.9959L123.125 32.9922C122.908 32.1758 122.692 31.3594 122.469 30.5357L121.304 26.1946L121.297 26.1706C121.242 25.9806 121.203 25.8473 120.916 25.8473C120.179 25.8666 119.429 25.8601 118.684 25.8537H118.681C118.31 25.8505 117.939 25.8473 117.572 25.8473C117.378 25.5438 117.192 25.2476 117.006 24.9514L117.005 24.9501C116.818 24.6535 116.632 24.3568 116.438 24.053C116.378 23.9951 116.318 23.9083 116.378 23.8214C116.43 23.7459 116.527 23.7799 116.61 23.8091L116.613 23.8099C116.621 23.8129 116.63 23.8158 116.638 23.8186L116.647 23.8214C117.035 23.9661 117.423 24.1036 117.811 24.2411C118.199 24.3785 118.587 24.5161 118.975 24.6607C119.378 24.8053 119.789 24.95 120.199 25.0946L120.2 25.0951C120.61 25.2397 121.021 25.3843 121.424 25.5289C121.633 25.6158 121.842 25.6447 121.752 25.2974C121.766 25.2974 121.773 25.2974 121.774 25.2947C121.776 25.2914 121.768 25.2843 121.752 25.2685H121.722C121.722 25.2685 121.722 25.2395 121.692 25.2395C121.757 25.1565 121.713 25.0883 121.673 25.0244C121.657 24.9992 121.641 24.9747 121.633 24.9501C121.453 24.6607 121.274 24.3641 121.095 24.0674C120.916 23.7708 120.737 23.4741 120.558 23.1847C119.976 22.2297 119.386 21.2746 118.796 20.3196C118.207 19.3645 117.617 18.4095 117.035 17.4544C117.035 17.45 117.035 17.4456 117.037 17.4412C117.038 17.4372 117.039 17.4333 117.041 17.4293C117.043 17.4232 117.046 17.4171 117.05 17.411C117.057 17.3965 117.065 17.3821 117.065 17.3676C117.154 17.3097 117.214 17.2518 117.274 17.165C117.599 16.7863 117.925 16.4048 118.251 16.0223L118.252 16.0211L118.254 16.0191L118.254 16.0184C118.975 15.1744 119.699 14.3251 120.438 13.4895C120.489 13.4315 120.539 13.3727 120.589 13.314L120.59 13.3132C120.863 12.9919 121.135 12.6722 121.513 12.4766C122.707 11.8112 123.893 11.1386 125.08 10.466L125.082 10.4649L125.087 10.462C126.272 9.79018 127.457 9.1184 128.649 8.45382C128.918 8.30911 129.037 8.13546 129.067 7.875C129.216 6.9923 129.366 6.11684 129.515 5.24138C129.664 4.36592 129.813 3.49046 129.963 2.60776C129.993 2.54988 130.052 2.40516 129.903 2.31836Z" fill="white"/>
<path d="M46.0351 35.8319H42.4523V39.0154H41.4073V42.4883H42.4523V48.9421H46.0351V42.4883H47.0801V39.0154H46.0351V35.8319Z" fill="white"/>
<path d="M27.9718 40.4335H23.5828V35.3978H20V48.9421H23.5828V43.9064H27.9718V48.9421H31.5546V35.3978H27.9718V40.4335Z" fill="white"/>
<path d="M35.2568 40.5493V48.9421H38.8396V40.5493L37.0482 41.4175L35.2568 40.5493Z" fill="white"/>
<path d="M37.0482 35.3689C36.0032 35.3689 35.1673 36.0634 35.1673 36.9606C35.1673 37.8578 36.0032 38.5524 37.0482 38.5524C38.0932 38.5524 38.9292 37.8578 38.9292 36.9606C38.9292 36.0634 38.0932 35.3689 37.0482 35.3689Z" fill="white"/>
<path d="M82.9381 45.4692C84.1025 45.4692 85.2072 44.9483 85.9536 44.08L88.79 46.3085C87.3569 48.016 85.2072 49 82.9381 49C78.7581 49 75.3544 45.7007 75.3544 41.649C75.3544 37.5973 78.7581 34.298 82.9381 34.298C85.028 34.298 87.0285 35.1373 88.4616 36.6133L85.7745 39.0733C85.028 38.3208 84.0129 37.8867 82.9381 37.8867C80.7884 37.8867 79.0268 39.5942 79.0268 41.6779C79.0268 43.7617 80.7884 45.4692 82.9381 45.4692Z" fill="white"/>
<path d="M62.8446 37.713H66.4871V48.9421H70.0699V37.713H73.6826V34.2401H62.8446V37.713Z" fill="white"/>
<path fill-rule="evenodd" clip-rule="evenodd" d="M60.8442 38.8996C60.8442 39.7968 60.5755 40.6361 60.0978 41.3596C60.8741 42.141 61.3219 43.2118 61.2921 44.4274C61.2921 46.9452 59.2021 48.9711 56.6045 48.9711H50.3346V34.3559H56.1567C58.7542 34.3559 60.8442 36.3818 60.8442 38.8996ZM56.1865 37.7999H53.7681V39.8547H56.6344C57.0225 39.681 57.2912 39.3048 57.2912 38.8707C57.2912 38.2919 56.7837 37.7999 56.1865 37.7999ZM53.7681 45.4692H56.6344C57.2614 45.4692 57.7391 44.9772 57.7391 44.3984C57.7391 43.8775 57.3808 43.4723 56.9031 43.3565C56.6643 43.3855 56.4254 43.4144 56.1865 43.4144H53.7681V45.4692Z" fill="white"/>
</svg>
