<svg width="252" height="76" viewBox="0 0 252 76" fill="none" xmlns="http://www.w3.org/2000/svg">
<path fill-rule="evenodd" clip-rule="evenodd" d="M1.8 0C0.805869 0 0 0.810133 0 1.80952V74.1905C0 75.1899 0.805869 76 1.8 76H73.8C74.7941 76 75.6 75.1899 75.6 74.1905V1.80952C75.6 0.810133 74.7941 0 73.8 0H1.8ZM48.6 25.3333C49.5941 25.3333 50.4 26.1435 50.4 27.1429V48.8571C50.4 49.8565 49.5941 50.6667 48.6 50.6667H27C26.0059 50.6667 25.2 49.8565 25.2 48.8571V27.1429C25.2 26.1435 26.0059 25.3333 27 25.3333H48.6Z" fill="white"/>
<path d="M138.6 1.80952C138.6 0.810133 139.406 0 140.4 0H162C162.994 0 163.8 0.810133 163.8 1.80952V23.5238C163.8 24.5232 162.994 25.3333 162 25.3333H140.4C139.406 25.3333 138.6 24.5232 138.6 23.5238V1.80952Z" fill="white"/>
<path d="M111.6 0C112.594 0 113.4 0.810133 113.4 1.80952V23.5238C113.4 24.5232 114.206 25.3333 115.2 25.3333H136.8C137.794 25.3333 138.6 26.1435 138.6 27.1429V48.8571C138.6 49.8565 137.794 50.6667 136.8 50.6667H115.2C114.206 50.6667 113.4 51.4768 113.4 52.4762V74.1905C113.4 75.1899 112.594 76 111.6 76H90C89.0059 76 88.2 75.1899 88.2 74.1905V1.80952C88.2 0.810133 89.0059 0 90 0H111.6Z" fill="white"/>
<path d="M138.6 52.4762C138.6 51.4768 139.406 50.6667 140.4 50.6667H162C162.994 50.6667 163.8 51.4768 163.8 52.4762V74.1905C163.8 75.1899 162.994 76 162 76H140.4C139.406 76 138.6 75.1899 138.6 74.1905V52.4762Z" fill="white"/>
<path d="M178.2 0C177.206 0 176.4 0.810133 176.4 1.80952V23.5238C176.4 24.5232 177.206 25.3333 178.2 25.3333H199.8C200.794 25.3333 201.6 24.5232 201.6 23.5238V1.80952C201.6 0.810133 200.794 0 199.8 0H178.2Z" fill="white"/>
<path d="M176.4 52.4762C176.4 51.4768 177.206 50.6667 178.2 50.6667H199.8C200.794 50.6667 201.6 51.4768 201.6 52.4762V74.1905C201.6 75.1899 200.794 76 199.8 76H178.2C177.206 76 176.4 75.1899 176.4 74.1905V52.4762Z" fill="white"/>
<path d="M228.6 0C227.606 0 226.8 0.810133 226.8 1.80952V23.5238C226.8 24.5232 227.606 25.3333 228.6 25.3333H250.2C251.194 25.3333 252 24.5232 252 23.5238V1.80952C252 0.810133 251.194 0 250.2 0H228.6Z" fill="white"/>
<path d="M201.6 27.1429C201.6 26.1435 202.406 25.3333 203.4 25.3333H225C225.994 25.3333 226.8 26.1435 226.8 27.1429V48.8571C226.8 49.8565 225.994 50.6667 225 50.6667H203.4C202.406 50.6667 201.6 49.8565 201.6 48.8571V27.1429Z" fill="white"/>
<path d="M228.6 50.6667C227.606 50.6667 226.8 51.4768 226.8 52.4762V74.1905C226.8 75.1899 227.606 76 228.6 76H250.2C251.194 76 252 75.1899 252 74.1905V52.4762C252 51.4768 251.194 50.6667 250.2 50.6667H228.6Z" fill="white"/>
</svg>
