<svg width="160" height="52" viewBox="0 0 160 52" fill="none" xmlns="http://www.w3.org/2000/svg">
<path d="M82.3731 25.951C82.3731 27.6925 82.104 29.3359 81.5413 30.8567C80.9786 32.402 80.1957 33.7265 79.1437 34.8793C78.0917 36.0322 76.8196 36.9397 75.2783 37.6265C73.737 38.3133 72 38.6322 70.0428 38.6322C68.0856 38.6322 66.3486 38.2888 64.8073 37.6265C63.266 36.9397 61.9939 36.0322 60.9419 34.8793C59.8899 33.7265 59.0826 32.3774 58.5443 30.8567C58.0061 29.3114 57.737 27.6925 57.737 25.951C57.737 24.234 58.0061 22.5906 58.5443 21.0454C59.0826 19.5001 59.8899 18.151 60.9419 16.9982C61.9939 15.8454 63.2905 14.9378 64.8073 14.251C66.3486 13.5642 68.0856 13.2454 70.0428 13.2454C72 13.2454 73.737 13.5888 75.2783 14.251C76.8196 14.9378 78.0917 15.8454 79.1437 16.9982C80.1957 18.151 80.9786 19.5001 81.5413 21.0454C82.104 22.5906 82.3731 24.234 82.3731 25.951ZM70.0673 34.6095C71.266 34.6095 72.318 34.3888 73.1988 33.9472C74.104 33.5057 74.8379 32.8925 75.4495 32.1322C76.0612 31.3472 76.5015 30.4397 76.7951 29.385C77.0887 28.3303 77.2355 27.1774 77.2355 25.951C77.2355 24.7246 77.0887 23.5718 76.7951 22.5171C76.5015 21.4623 76.0612 20.5548 75.4495 19.7699C74.8379 18.985 74.104 18.3963 73.1988 17.9548C72.2936 17.5133 71.266 17.2925 70.0673 17.2925C68.8685 17.2925 67.8165 17.5133 66.9358 17.9548C66.0306 18.3963 65.2966 19.0095 64.685 19.7699C64.0734 20.5548 63.633 21.4623 63.3394 22.5171C63.0459 23.5718 62.8991 24.7246 62.8991 25.951C62.8991 27.1774 63.0459 28.3303 63.3394 29.385C63.633 30.4397 64.0734 31.3472 64.685 32.1322C65.2966 32.9171 66.0306 33.5057 66.9358 33.9472C67.8165 34.3888 68.8685 34.6095 70.0673 34.6095ZM85.6024 38.2152V13.6869H90.7401V25.4605L99.2294 13.6869H105.174L96.1713 25.8039L105.786 38.2152H99.4251L90.7156 26.1718V38.2152H85.6024ZM107.841 13.6869H122.544V17.7831H113.003V23.7189H122.104V27.7906H113.003V34.1189H122.667V38.2152H107.865V13.6869H107.841ZM140.868 13.6869H146.446L138.398 25.8774L146.593 38.2152H140.966L135.682 29.851L130.398 38.2152H124.771L132.966 25.8774L124.917 13.6869H130.495L135.682 21.9774L140.868 13.6869Z" fill="white"/>
<path d="M25.9327 23.5472C32.4182 23.5472 37.6758 18.276 37.6758 11.7736C37.6758 5.27121 32.4182 0 25.9327 0C19.4471 0 14.1896 5.27121 14.1896 11.7736C14.1896 18.276 19.4471 23.5472 25.9327 23.5472Z" fill="white" fill-opacity="0.3"/>
<path d="M25.9327 52C32.4182 52 37.6758 46.7288 37.6758 40.2265C37.6758 33.7241 32.4182 28.4529 25.9327 28.4529C19.4471 28.4529 14.1896 33.7241 14.1896 40.2265C14.1896 46.7288 19.4471 52 25.9327 52Z" fill="white" fill-opacity="0.5"/>
<path d="M40.1223 37.7735C46.6079 37.7735 51.8655 32.5023 51.8655 25.9999C51.8655 19.4975 46.6079 14.2263 40.1223 14.2263C33.6368 14.2263 28.3792 19.4975 28.3792 25.9999C28.3792 32.5023 33.6368 37.7735 40.1223 37.7735Z" fill="white" fill-opacity="0.4"/>
<path d="M11.7431 37.7735C18.2287 37.7735 23.4862 32.5023 23.4862 25.9999C23.4862 19.4975 18.2287 14.2263 11.7431 14.2263C5.25757 14.2263 0 19.4975 0 25.9999C0 32.5023 5.25757 37.7735 11.7431 37.7735Z" fill="white" fill-opacity="0.6"/>
</svg>
